{"title":"What.Not.To.Wear s08e05 Linda","uid":7179735,"size":540827656,"categoryP":"video","categoryS":"tv_shows","magnet":"?xt=urn:btih:4e4a18645372dcd02e280cc1cc850d92592a6597&amp;dn=What.Not.To.Wear+s08e05+Linda&amp;tr=udp%3A%2F%2Ftracker.openbittorrent.com%3A80&amp;tr=udp%3A%2F%2Fopen.demonii.com%3A1337&amp;tr=udp%3A%2F%2Ftracker.coppersurfer.tk%3A6969&amp;tr=udp%3A%2F%2Fexodus.desync.com%3A6969","seeders":1,"leechers":0,"uploader":"April22","files":-1,"time":1334228187,"description":"WHAT NOT TO WEAR\n\nTwo fashion stylists and a team of hair and makeup advisors help revamp the look of individuals who have been nominated by their friends for makeovers due to their lamentable appearance, using a $5,000 budget.\n\nSEASON 8 EPISODE 5 - Linda\n\nHillary is a 30-year-old, wedding-obsessed florist who has lost 40 pounds and recently opened her own flower shop. Despite having a budding career she loves and a guy she hopes to marry, she's hiding in a frightening collection of aprons, hand-me-downs and mud-brown outfits. In order for her to take her business and boyfriend to the next level, she needs to give her ego and style a giant boost if she is ever going to able to say, &quot;I do&quot; to a confident new image.\n\nMediaInfo:\n\nGeneral\nComplete name                    : C:MOVIESs08e05 Linda.avi\nFormat                           : AVI\nFormat/Info                      : Audio Video Interleave\nFile size                        : 516 MiB\nDuration                         : 42mn 17s\nOverall bit rate                 : 1 705 Kbps\nWriting application              : Lavf52.39.0\nWriting library                  : VirtualDub build 32842/release\n\nVideo\nID                               : 0\nFormat                           : MPEG-4 Visual\nFormat profile                   : Simple@L1\nFormat settings, BVOP            : No\nFormat settings, QPel            : No\nFormat settings, GMC             : No warppoints\nFormat settings, Matrix          : Default (H.263)\nCodec ID                         : DX50\nCodec ID/Hint                    : DivX 5\nDuration                         : 42mn 17s\nBit rate                         : 1 500 Kbps\nWidth                            : 720 pixels\nHeight                           : 448 pixels\nDisplay aspect ratio             : 1.607\nFrame rate                       : 25.000 fps\nColor space                      : YUV\nChroma subsampling               : 4:2:0\nBit depth                        : 8 bits\nScan type                        : Progressive\nCompression mode                 : Lossy\nBits/(Pixel*Frame)               : 0.186\nStream size                      : 454 MiB (88%)\nWriting library                  : Lavc52.36.0\n\nAudio\nID                               : 1\nFormat                           : MPEG Audio\nFormat version                   : Version 1\nFormat profile                   : Layer 3\nMode                             : Joint stereo\nMode extension                   : MS Stereo\nCodec ID                         : 55\nCodec ID/Hint                    : MP3\nDuration                         : 42mn 17s\nBit rate mode                    : Constant\nBit rate                         : 192 Kbps\nChannel(s)                       : 2 channels\nSampling rate                    : 48.0 KHz\nCompression mode                 : Lossy\nStream size                      : 58.1 MiB (11%)\nAlignment                        : Aligned on interleaves\nInterleave, duration             : 24 ms (0.60 video frame)\nInterleave, preload duration     : 504 ms","torrent":{"xt":"urn:btih:4e4a18645372dcd02e280cc1cc850d92592a6597","amp;dn":"What.Not.To.Wear+s08e05+Linda","amp;tr":["udp%3A%2F%2Ftracker.openbittorrent.com%3A80","udp%3A%2F%2Fopen.demonii.com%3A1337","udp%3A%2F%2Ftracker.coppersurfer.tk%3A6969","udp%3A%2F%2Fexodus.desync.com%3A6969"],"infoHash":"4e4a18645372dcd02e280cc1cc850d92592a6597","infoHashBuffer":{"type":"Buffer","data":[78,74,24,100,83,114,220,208,46,40,12,193,204,133,13,146,89,42,101,151]},"announce":[],"urlList":[]}}